<mxGraphModel dx="0" dy="0" grid="1" gridSize="10" guides="1" tooltips="1" connect="1" arrows="1" fold="1" page="0" pageScale="1" background="none" math="0" shadow="0">
  <root>
    <mxCell id="0" />
    <mxCell id="1" parent="0" />
    <mxCell id="node0" parent="1" vertex="1" value="&lt;p style=&quot;margin:0px;margin-top:4px;text-align:center;&quot;&gt;&lt;i&gt;&amp;lt;&amp;lt;interface&amp;gt;&amp;gt;&lt;/i&gt;&lt;br/&gt;&lt;b&gt;AuthorDao&lt;/b&gt;&lt;/p&gt;&lt;hr size=&quot;1&quot;/&gt;&lt;p style=&quot;margin:0 0 0 4px;line-height:1.6;&quot;&gt;+ selectAuthorByProvince_city(int, int, Author): List&amp;lt;Author&amp;gt;&lt;br/&gt;+ selectAuthorByPhone(int, int, Author): List&amp;lt;Author&amp;gt;&lt;br/&gt;+ selectAuthorByContact(int, int, Author): List&amp;lt;Author&amp;gt;&lt;br/&gt;+ deleteAuthorById(Author): int&lt;br/&gt;+ updateAuthorById(Author): int&lt;br/&gt;+ selectAuthorByName(int, int, Author): List&amp;lt;Author&amp;gt;&lt;br/&gt;+ selectAuthorByCount(): int&lt;br/&gt;+ insertAuthor(Author): int&lt;br/&gt;+ selectAuthorAll(int, int): List&amp;lt;Author&amp;gt;&lt;/p&gt;" style="verticalAlign=top;align=left;overflow=fill;fontSize=14;fontFamily=Helvetica;html=1;rounded=0;shadow=0;comic=0;labelBackgroundColor=none;strokeWidth=1;">
      <mxGeometry x="262" y="9" width="404" height="257" as="geometry" />
    </mxCell>
    <mxCell id="node1" parent="1" vertex="1" value="&lt;p style=&quot;margin:0px;margin-top:4px;text-align:center;&quot;&gt;&lt;b&gt;AuthorDaoImpl&lt;/b&gt;&lt;/p&gt;&lt;hr size=&quot;1&quot;/&gt;&lt;p style=&quot;margin:0 0 0 4px;line-height:1.6;&quot;&gt;+ selectAuthorByCount(): int&lt;br/&gt;+ deleteAuthorById(Author): int&lt;br/&gt;+ selectAuthorAll(int, int): List&amp;lt;Author&amp;gt;&lt;br/&gt;+ selectAuthorByPhone(int, int, Author): List&amp;lt;Author&amp;gt;&lt;br/&gt;+ selectAuthorByName(int, int, Author): List&amp;lt;Author&amp;gt;&lt;br/&gt;+ insertAuthor(Author): int&lt;br/&gt;+ selectAuthorByProvince_city(int, int, Author): List&amp;lt;Author&amp;gt;&lt;br/&gt;+ selectAuthorByContact(int, int, Author): List&amp;lt;Author&amp;gt;&lt;br/&gt;+ updateAuthorById(Author): int&lt;/p&gt;&lt;hr size=&quot;1&quot;/&gt;&lt;p style=&quot;margin:0 0 0 4px;line-height:1.6;&quot;&gt;+ AuthorDaoImpl(): &lt;/p&gt;" style="verticalAlign=top;align=left;overflow=fill;fontSize=14;fontFamily=Helvetica;html=1;rounded=0;shadow=0;comic=0;labelBackgroundColor=none;strokeWidth=1;">
      <mxGeometry x="549" y="364" width="404" height="282" as="geometry" />
    </mxCell>
    <mxCell id="node9" parent="1" vertex="1" value="&lt;p style=&quot;margin:0px;margin-top:4px;text-align:center;&quot;&gt;&lt;b&gt;BasicDao&lt;/b&gt;&lt;/p&gt;&lt;hr size=&quot;1&quot;/&gt;&lt;p style=&quot;margin:0 0 0 4px;line-height:1.6;&quot;&gt;+ selectOne(Class&amp;lt;T&amp;gt;, String, Object[]): T&lt;br/&gt;+ update(String, Object[]): int&lt;br/&gt;+ selectAggregate(String, Object[]): Object&lt;br/&gt;+ selectList(Class&amp;lt;T&amp;gt;, String, Object[]): List&amp;lt;T&amp;gt;&lt;/p&gt;&lt;hr size=&quot;1&quot;/&gt;&lt;p style=&quot;margin:0 0 0 4px;line-height:1.6;&quot;&gt;+ BasicDao(): &lt;/p&gt;" style="verticalAlign=top;align=left;overflow=fill;fontSize=14;fontFamily=Helvetica;html=1;rounded=0;shadow=0;comic=0;labelBackgroundColor=none;strokeWidth=1;">
      <mxGeometry x="1188" y="57" width="322" height="162" as="geometry" />
    </mxCell>
    <mxCell id="node2" parent="1" vertex="1" value="&lt;p style=&quot;margin:0px;margin-top:4px;text-align:center;&quot;&gt;&lt;i&gt;&amp;lt;&amp;lt;interface&amp;gt;&amp;gt;&lt;/i&gt;&lt;br/&gt;&lt;b&gt;BookDao&lt;/b&gt;&lt;/p&gt;&lt;hr size=&quot;1&quot;/&gt;&lt;p style=&quot;margin:0 0 0 4px;line-height:1.6;&quot;&gt;+ selectBookByCount(): int&lt;br/&gt;+ selectByType(): List&amp;lt;Type&amp;gt;&lt;br/&gt;+ selectBookAll(int, int): List&amp;lt;Book&amp;gt;&lt;br/&gt;+ deleteBookById(Book): int&lt;br/&gt;+ insertBook(Book): int&lt;br/&gt;+ updateBookById(Book): int&lt;br/&gt;+ updateBook(Book): int&lt;br/&gt;+ selectBookByAuthor(int, int, Book): List&amp;lt;Book&amp;gt;&lt;br/&gt;+ selectBookByType(int, int, Book): List&amp;lt;Book&amp;gt;&lt;br/&gt;+ selectByAuthor(): List&amp;lt;Author&amp;gt;&lt;br/&gt;+ selectBookByBook_name(int, int, Book): List&amp;lt;Book&amp;gt;&lt;/p&gt;" style="verticalAlign=top;align=left;overflow=fill;fontSize=14;fontFamily=Helvetica;html=1;rounded=0;shadow=0;comic=0;labelBackgroundColor=none;strokeWidth=1;">
      <mxGeometry x="-121" y="-15" width="363" height="305" as="geometry" />
    </mxCell>
    <mxCell id="node12" parent="1" vertex="1" value="&lt;p style=&quot;margin:0px;margin-top:4px;text-align:center;&quot;&gt;&lt;b&gt;BookDaoImpl&lt;/b&gt;&lt;/p&gt;&lt;hr size=&quot;1&quot;/&gt;&lt;p style=&quot;margin:0 0 0 4px;line-height:1.6;&quot;&gt;+ selectBookByType(int, int, Book): List&amp;lt;Book&amp;gt;&lt;br/&gt;+ updateBook(Book): int&lt;br/&gt;+ selectByAuthor(): List&amp;lt;Author&amp;gt;&lt;br/&gt;+ deleteBookById(Book): int&lt;br/&gt;+ insertBook(Book): int&lt;br/&gt;+ selectByType(): List&amp;lt;Type&amp;gt;&lt;br/&gt;+ selectBookByAuthor(int, int, Book): List&amp;lt;Book&amp;gt;&lt;br/&gt;+ updateBookById(Book): int&lt;br/&gt;+ selectBookByCount(): int&lt;br/&gt;+ selectBookByBook_name(int, int, Book): List&amp;lt;Book&amp;gt;&lt;br/&gt;+ selectBookAll(int, int): List&amp;lt;Book&amp;gt;&lt;/p&gt;&lt;hr size=&quot;1&quot;/&gt;&lt;p style=&quot;margin:0 0 0 4px;line-height:1.6;&quot;&gt;+ BookDaoImpl(): &lt;/p&gt;" style="verticalAlign=top;align=left;overflow=fill;fontSize=14;fontFamily=Helvetica;html=1;rounded=0;shadow=0;comic=0;labelBackgroundColor=none;strokeWidth=1;">
      <mxGeometry x="161" y="340" width="363" height="330" as="geometry" />
    </mxCell>
    <mxCell id="node3" parent="1" vertex="1" value="&lt;p style=&quot;margin:0px;margin-top:4px;text-align:center;&quot;&gt;&lt;i&gt;&amp;lt;&amp;lt;interface&amp;gt;&amp;gt;&lt;/i&gt;&lt;br/&gt;&lt;b&gt;ManageDao&lt;/b&gt;&lt;/p&gt;&lt;hr size=&quot;1&quot;/&gt;&lt;p style=&quot;margin:0 0 0 4px;line-height:1.6;&quot;&gt;+ updateByName(Manage): int&lt;br/&gt;+ selectMange(Manage): Manage&lt;/p&gt;" style="verticalAlign=top;align=left;overflow=fill;fontSize=14;fontFamily=Helvetica;html=1;rounded=0;shadow=0;comic=0;labelBackgroundColor=none;strokeWidth=1;">
      <mxGeometry x="706" y="93" width="241" height="111" as="geometry" />
    </mxCell>
    <mxCell id="node5" parent="1" vertex="1" value="&lt;p style=&quot;margin:0px;margin-top:4px;text-align:center;&quot;&gt;&lt;b&gt;ManageDaoImpl&lt;/b&gt;&lt;/p&gt;&lt;hr size=&quot;1&quot;/&gt;&lt;p style=&quot;margin:0 0 0 4px;line-height:1.6;&quot;&gt;+ selectMange(Manage): Manage&lt;br/&gt;+ updateByName(Manage): int&lt;/p&gt;&lt;hr size=&quot;1&quot;/&gt;&lt;p style=&quot;margin:0 0 0 4px;line-height:1.6;&quot;&gt;+ ManageDaoImpl(): &lt;/p&gt;" style="verticalAlign=top;align=left;overflow=fill;fontSize=14;fontFamily=Helvetica;html=1;rounded=0;shadow=0;comic=0;labelBackgroundColor=none;strokeWidth=1;">
      <mxGeometry x="973" y="448" width="241" height="123" as="geometry" />
    </mxCell>
    <mxCell id="node6" parent="1" vertex="1" value="&lt;p style=&quot;margin:0px;margin-top:4px;text-align:center;&quot;&gt;&lt;i&gt;&amp;lt;&amp;lt;interface&amp;gt;&amp;gt;&lt;/i&gt;&lt;br/&gt;&lt;b&gt;OrderDao&lt;/b&gt;&lt;/p&gt;&lt;hr size=&quot;1&quot;/&gt;&lt;p style=&quot;margin:0 0 0 4px;line-height:1.6;&quot;&gt;+ selectOrderByPurchase_time(int, int, Order): List&amp;lt;Order&amp;gt;&lt;br/&gt;+ updateOrderById(Order): int&lt;br/&gt;+ selectOrderByBook_name(int, int, Order): List&amp;lt;Order&amp;gt;&lt;br/&gt;+ selectOrderByName(int, int, Order): List&amp;lt;Order&amp;gt;&lt;br/&gt;+ selectOrderByCount(): int&lt;br/&gt;+ selectOrderAll(int, int): List&amp;lt;Order&amp;gt;&lt;br/&gt;+ deleteOrderById(Order): int&lt;/p&gt;" style="verticalAlign=top;align=left;overflow=fill;fontSize=14;fontFamily=Helvetica;html=1;rounded=0;shadow=0;comic=0;labelBackgroundColor=none;strokeWidth=1;">
      <mxGeometry x="1530" y="33" width="392" height="209" as="geometry" />
    </mxCell>
    <mxCell id="node7" parent="1" vertex="1" value="&lt;p style=&quot;margin:0px;margin-top:4px;text-align:center;&quot;&gt;&lt;b&gt;OrderDaoImpl&lt;/b&gt;&lt;/p&gt;&lt;hr size=&quot;1&quot;/&gt;&lt;p style=&quot;margin:0 0 0 4px;line-height:1.6;&quot;&gt;+ selectOrderByBook_name(int, int, Order): List&amp;lt;Order&amp;gt;&lt;br/&gt;+ selectOrderByCount(): int&lt;br/&gt;+ updateOrderById(Order): int&lt;br/&gt;+ selectOrderByName(int, int, Order): List&amp;lt;Order&amp;gt;&lt;br/&gt;+ deleteOrderById(Order): int&lt;br/&gt;+ selectOrderAll(int, int): List&amp;lt;Order&amp;gt;&lt;br/&gt;+ selectOrderByPurchase_time(int, int, Order): List&amp;lt;Order&amp;gt;&lt;/p&gt;&lt;hr size=&quot;1&quot;/&gt;&lt;p style=&quot;margin:0 0 0 4px;line-height:1.6;&quot;&gt;+ OrderDaoImpl(): &lt;/p&gt;" style="verticalAlign=top;align=left;overflow=fill;fontSize=14;fontFamily=Helvetica;html=1;rounded=0;shadow=0;comic=0;labelBackgroundColor=none;strokeWidth=1;">
      <mxGeometry x="1236" y="388" width="392" height="234" as="geometry" />
    </mxCell>
    <mxCell id="node8" parent="1" vertex="1" value="&lt;p style=&quot;margin:0px;margin-top:4px;text-align:center;&quot;&gt;&lt;i&gt;&amp;lt;&amp;lt;interface&amp;gt;&amp;gt;&lt;/i&gt;&lt;br/&gt;&lt;b&gt;ProvinceAndCityDao&lt;/b&gt;&lt;/p&gt;&lt;hr size=&quot;1&quot;/&gt;&lt;p style=&quot;margin:0 0 0 4px;line-height:1.6;&quot;&gt;+ selectByProvince(): List&amp;lt;Province&amp;gt;&lt;br/&gt;+ selectByCity(Province): List&amp;lt;City&amp;gt;&lt;/p&gt;" style="verticalAlign=top;align=left;overflow=fill;fontSize=14;fontFamily=Helvetica;html=1;rounded=0;shadow=0;comic=0;labelBackgroundColor=none;strokeWidth=1;">
      <mxGeometry x="1942" y="93" width="255" height="111" as="geometry" />
    </mxCell>
    <mxCell id="node10" parent="1" vertex="1" value="&lt;p style=&quot;margin:0px;margin-top:4px;text-align:center;&quot;&gt;&lt;b&gt;ProvinceAndCityDaoImpl&lt;/b&gt;&lt;/p&gt;&lt;hr size=&quot;1&quot;/&gt;&lt;p style=&quot;margin:0 0 0 4px;line-height:1.6;&quot;&gt;+ selectByCity(Province): List&amp;lt;City&amp;gt;&lt;br/&gt;+ selectByProvince(): List&amp;lt;Province&amp;gt;&lt;/p&gt;&lt;hr size=&quot;1&quot;/&gt;&lt;p style=&quot;margin:0 0 0 4px;line-height:1.6;&quot;&gt;+ ProvinceAndCityDaoImpl(): &lt;/p&gt;" style="verticalAlign=top;align=left;overflow=fill;fontSize=14;fontFamily=Helvetica;html=1;rounded=0;shadow=0;comic=0;labelBackgroundColor=none;strokeWidth=1;">
      <mxGeometry x="1652" y="448" width="255" height="123" as="geometry" />
    </mxCell>
    <mxCell id="node4" parent="1" vertex="1" value="&lt;p style=&quot;margin:0px;margin-top:4px;text-align:center;&quot;&gt;&lt;i&gt;&amp;lt;&amp;lt;interface&amp;gt;&amp;gt;&lt;/i&gt;&lt;br/&gt;&lt;b&gt;UserDao&lt;/b&gt;&lt;/p&gt;&lt;hr size=&quot;1&quot;/&gt;&lt;p style=&quot;margin:0 0 0 4px;line-height:1.6;&quot;&gt;+ selectUserByPhone(int, int, User): List&amp;lt;User&amp;gt;&lt;br/&gt;+ selectUserByEmail(int, int, User): List&amp;lt;User&amp;gt;&lt;br/&gt;+ reUserById(User): int&lt;br/&gt;+ insertUser(User): int&lt;br/&gt;+ deleteUserById(User): int&lt;br/&gt;+ updateUserById(User): int&lt;br/&gt;+ selectUserByProvince_city(int, int, User): List&amp;lt;User&amp;gt;&lt;br/&gt;+ selectUserAll(int, int): List&amp;lt;User&amp;gt;&lt;br/&gt;+ selectUserByName(int, int, User): List&amp;lt;User&amp;gt;&lt;br/&gt;+ selectUserByCount(): int&lt;/p&gt;" style="verticalAlign=top;align=left;overflow=fill;fontSize=14;fontFamily=Helvetica;html=1;rounded=0;shadow=0;comic=0;labelBackgroundColor=none;strokeWidth=1;">
      <mxGeometry x="2230" y="-3" width="359" height="281" as="geometry" />
    </mxCell>
    <mxCell id="node11" parent="1" vertex="1" value="&lt;p style=&quot;margin:0px;margin-top:4px;text-align:center;&quot;&gt;&lt;b&gt;UserDaoImpl&lt;/b&gt;&lt;/p&gt;&lt;hr size=&quot;1&quot;/&gt;&lt;p style=&quot;margin:0 0 0 4px;line-height:1.6;&quot;&gt;+ selectUserAll(int, int): List&amp;lt;User&amp;gt;&lt;br/&gt;+ reUserById(User): int&lt;br/&gt;+ selectUserByPhone(int, int, User): List&amp;lt;User&amp;gt;&lt;br/&gt;+ selectUserByName(int, int, User): List&amp;lt;User&amp;gt;&lt;br/&gt;+ selectUserByProvince_city(int, int, User): List&amp;lt;User&amp;gt;&lt;br/&gt;+ selectUserByEmail(int, int, User): List&amp;lt;User&amp;gt;&lt;br/&gt;+ updateUserById(User): int&lt;br/&gt;+ deleteUserById(User): int&lt;br/&gt;+ insertUser(User): int&lt;br/&gt;+ selectUserByCount(): int&lt;/p&gt;&lt;hr size=&quot;1&quot;/&gt;&lt;p style=&quot;margin:0 0 0 4px;line-height:1.6;&quot;&gt;+ UserDaoImpl(): &lt;/p&gt;" style="verticalAlign=top;align=left;overflow=fill;fontSize=14;fontFamily=Helvetica;html=1;rounded=0;shadow=0;comic=0;labelBackgroundColor=none;strokeWidth=1;">
      <mxGeometry x="2072" y="352" width="359" height="306" as="geometry" />
    </mxCell>
    <mxCell id="edge4" edge="1" value="" parent="1" source="node1" target="node0" style="html=1;rounded=1;edgeStyle=orthogonalEdgeStyle;dashed=1;startArrow=none;endArrow=block;endSize=12;strokeColor=#008200;exitX=0.250;exitY=0.000;exitDx=0;exitDy=0;entryX=0.500;entryY=1.000;entryDx=0;entryDy=0;">
      <mxGeometry width="50" height="50" relative="1" as="geometry">
        <Array as="points">
          <mxPoint x="650" y="310" />
          <mxPoint x="464" y="310" />
        </Array>
      </mxGeometry>
    </mxCell>
    <mxCell id="edge11" edge="1" value="" parent="1" source="node1" target="node9" style="html=1;rounded=1;edgeStyle=orthogonalEdgeStyle;dashed=0;startArrow=none;endArrow=block;endSize=12;strokeColor=#000082;exitX=0.750;exitY=0.000;exitDx=0;exitDy=0;entryX=0.500;entryY=1.000;entryDx=0;entryDy=0;">
      <mxGeometry width="50" height="50" relative="1" as="geometry">
        <Array as="points">
          <mxPoint x="852" y="320" />
          <mxPoint x="1349" y="320" />
        </Array>
      </mxGeometry>
    </mxCell>
    <mxCell id="edge8" edge="1" value="" parent="1" source="node12" target="node9" style="html=1;rounded=1;edgeStyle=orthogonalEdgeStyle;dashed=0;startArrow=none;endArrow=block;endSize=12;strokeColor=#000082;exitX=0.750;exitY=0.000;exitDx=0;exitDy=0;entryX=0.500;entryY=1.000;entryDx=0;entryDy=0;">
      <mxGeometry width="50" height="50" relative="1" as="geometry">
        <Array as="points">
          <mxPoint x="434" y="320" />
          <mxPoint x="1349" y="320" />
        </Array>
      </mxGeometry>
    </mxCell>
    <mxCell id="edge10" edge="1" value="" parent="1" source="node12" target="node2" style="html=1;rounded=1;edgeStyle=orthogonalEdgeStyle;dashed=1;startArrow=none;endArrow=block;endSize=12;strokeColor=#008200;exitX=0.250;exitY=0.000;exitDx=0;exitDy=0;entryX=0.500;entryY=1.000;entryDx=0;entryDy=0;">
      <mxGeometry width="50" height="50" relative="1" as="geometry">
        <Array as="points">
          <mxPoint x="252" y="320" />
          <mxPoint x="61" y="320" />
        </Array>
      </mxGeometry>
    </mxCell>
    <mxCell id="edge9" edge="1" value="" parent="1" source="node5" target="node9" style="html=1;rounded=1;edgeStyle=orthogonalEdgeStyle;dashed=0;startArrow=none;endArrow=block;endSize=12;strokeColor=#000082;exitX=0.750;exitY=0.000;exitDx=0;exitDy=0;entryX=0.500;entryY=1.000;entryDx=0;entryDy=0;">
      <mxGeometry width="50" height="50" relative="1" as="geometry">
        <Array as="points">
          <mxPoint x="1154" y="320" />
          <mxPoint x="1349" y="320" />
        </Array>
      </mxGeometry>
    </mxCell>
    <mxCell id="edge5" edge="1" value="" parent="1" source="node5" target="node3" style="html=1;rounded=1;edgeStyle=orthogonalEdgeStyle;dashed=1;startArrow=none;endArrow=block;endSize=12;strokeColor=#008200;exitX=0.250;exitY=0.000;exitDx=0;exitDy=0;entryX=0.500;entryY=1.000;entryDx=0;entryDy=0;">
      <mxGeometry width="50" height="50" relative="1" as="geometry">
        <Array as="points">
          <mxPoint x="1034" y="310" />
          <mxPoint x="827" y="310" />
        </Array>
      </mxGeometry>
    </mxCell>
    <mxCell id="edge7" edge="1" value="" parent="1" source="node7" target="node9" style="html=1;rounded=1;edgeStyle=orthogonalEdgeStyle;dashed=0;startArrow=none;endArrow=block;endSize=12;strokeColor=#000082;exitX=0.250;exitY=0.000;exitDx=0;exitDy=0;entryX=0.500;entryY=1.000;entryDx=0;entryDy=0;">
      <mxGeometry width="50" height="50" relative="1" as="geometry">
        <Array as="points">
          <mxPoint x="1334" y="320" />
          <mxPoint x="1349" y="320" />
        </Array>
      </mxGeometry>
    </mxCell>
    <mxCell id="edge6" edge="1" value="" parent="1" source="node7" target="node6" style="html=1;rounded=1;edgeStyle=orthogonalEdgeStyle;dashed=1;startArrow=none;endArrow=block;endSize=12;strokeColor=#008200;exitX=0.750;exitY=0.000;exitDx=0;exitDy=0;entryX=0.500;entryY=1.000;entryDx=0;entryDy=0;">
      <mxGeometry width="50" height="50" relative="1" as="geometry">
        <Array as="points">
          <mxPoint x="1530" y="310" />
          <mxPoint x="1726" y="310" />
        </Array>
      </mxGeometry>
    </mxCell>
    <mxCell id="edge3" edge="1" value="" parent="1" source="node10" target="node9" style="html=1;rounded=1;edgeStyle=orthogonalEdgeStyle;dashed=0;startArrow=none;endArrow=block;endSize=12;strokeColor=#000082;exitX=0.250;exitY=0.000;exitDx=0;exitDy=0;entryX=0.500;entryY=1.000;entryDx=0;entryDy=0;">
      <mxGeometry width="50" height="50" relative="1" as="geometry">
        <Array as="points">
          <mxPoint x="1716" y="320" />
          <mxPoint x="1349" y="320" />
        </Array>
      </mxGeometry>
    </mxCell>
    <mxCell id="edge0" edge="1" value="" parent="1" source="node10" target="node8" style="html=1;rounded=1;edgeStyle=orthogonalEdgeStyle;dashed=1;startArrow=none;endArrow=block;endSize=12;strokeColor=#008200;exitX=0.750;exitY=0.000;exitDx=0;exitDy=0;entryX=0.500;entryY=1.000;entryDx=0;entryDy=0;">
      <mxGeometry width="50" height="50" relative="1" as="geometry">
        <Array as="points">
          <mxPoint x="1844" y="310" />
          <mxPoint x="2070" y="310" />
        </Array>
      </mxGeometry>
    </mxCell>
    <mxCell id="edge2" edge="1" value="" parent="1" source="node11" target="node9" style="html=1;rounded=1;edgeStyle=orthogonalEdgeStyle;dashed=0;startArrow=none;endArrow=block;endSize=12;strokeColor=#000082;exitX=0.250;exitY=0.000;exitDx=0;exitDy=0;entryX=0.500;entryY=1.000;entryDx=0;entryDy=0;">
      <mxGeometry width="50" height="50" relative="1" as="geometry">
        <Array as="points">
          <mxPoint x="2162" y="320" />
          <mxPoint x="1349" y="320" />
        </Array>
      </mxGeometry>
    </mxCell>
    <mxCell id="edge1" edge="1" value="" parent="1" source="node11" target="node4" style="html=1;rounded=1;edgeStyle=orthogonalEdgeStyle;dashed=1;startArrow=none;endArrow=block;endSize=12;strokeColor=#008200;exitX=0.750;exitY=0.000;exitDx=0;exitDy=0;entryX=0.500;entryY=1.000;entryDx=0;entryDy=0;">
      <mxGeometry width="50" height="50" relative="1" as="geometry">
        <Array as="points">
          <mxPoint x="2341" y="320" />
          <mxPoint x="2410" y="320" />
        </Array>
      </mxGeometry>
    </mxCell>
  </root>
</mxGraphModel>